<mxfile host="Electron" agent="Mozilla/5.0 (Macintosh; Intel Mac OS X 10_15_7) AppleWebKit/537.36 (KHTML, like Gecko) draw.io/24.7.17 Chrome/128.0.6613.36 Electron/32.0.1 Safari/537.36" version="24.7.17">
  <diagram name="Page-1" id="9aJW59-pD_e3pBErqKOP">
    <mxGraphModel dx="1552" dy="628" grid="1" gridSize="10" guides="1" tooltips="1" connect="1" arrows="1" fold="1" page="1" pageScale="1" pageWidth="1100" pageHeight="850" math="0" shadow="0">
      <root>
        <mxCell id="0" />
        <mxCell id="1" parent="0" />
        <mxCell id="pAHUZP1YiXW2KPVq_koE-33" value="" style="rounded=1;whiteSpace=wrap;html=1;fontFamily=Helvetica;fontSize=11;fontColor=default;labelBackgroundColor=default;dashed=1;" vertex="1" parent="1">
          <mxGeometry x="220" y="20" width="940" height="220" as="geometry" />
        </mxCell>
        <mxCell id="pAHUZP1YiXW2KPVq_koE-38" style="edgeStyle=orthogonalEdgeStyle;shape=connector;curved=1;rounded=0;orthogonalLoop=1;jettySize=auto;html=1;exitX=1;exitY=0.5;exitDx=0;exitDy=0;entryX=0;entryY=0.5;entryDx=0;entryDy=0;strokeColor=default;align=center;verticalAlign=middle;fontFamily=Helvetica;fontSize=11;fontColor=default;labelBackgroundColor=default;endArrow=classic;" edge="1" parent="1" source="pAHUZP1YiXW2KPVq_koE-30" target="pAHUZP1YiXW2KPVq_koE-32">
          <mxGeometry relative="1" as="geometry" />
        </mxCell>
        <mxCell id="pAHUZP1YiXW2KPVq_koE-30" value="" style="rounded=1;whiteSpace=wrap;html=1;fontFamily=Helvetica;fontSize=11;fontColor=default;labelBackgroundColor=default;" vertex="1" parent="1">
          <mxGeometry x="735" y="50" width="185" height="160" as="geometry" />
        </mxCell>
        <mxCell id="pAHUZP1YiXW2KPVq_koE-37" style="edgeStyle=orthogonalEdgeStyle;shape=connector;curved=1;rounded=0;orthogonalLoop=1;jettySize=auto;html=1;exitX=1;exitY=0.5;exitDx=0;exitDy=0;entryX=0;entryY=0.5;entryDx=0;entryDy=0;strokeColor=default;align=center;verticalAlign=middle;fontFamily=Helvetica;fontSize=11;fontColor=default;labelBackgroundColor=default;endArrow=classic;" edge="1" parent="1" source="pAHUZP1YiXW2KPVq_koE-29" target="pAHUZP1YiXW2KPVq_koE-30">
          <mxGeometry relative="1" as="geometry" />
        </mxCell>
        <mxCell id="pAHUZP1YiXW2KPVq_koE-29" value="" style="rounded=1;whiteSpace=wrap;html=1;fontFamily=Helvetica;fontSize=11;fontColor=default;labelBackgroundColor=default;" vertex="1" parent="1">
          <mxGeometry x="460" y="50" width="200" height="160" as="geometry" />
        </mxCell>
        <mxCell id="pAHUZP1YiXW2KPVq_koE-2" value="sp&lt;div&gt;.grammar&lt;/div&gt;" style="shape=cylinder3;whiteSpace=wrap;html=1;boundedLbl=1;backgroundOutline=1;size=15;fillColor=#d5e8d4;strokeColor=#82b366;labelBackgroundColor=none;" vertex="1" parent="1">
          <mxGeometry x="500" y="90" width="60" height="80" as="geometry" />
        </mxCell>
        <mxCell id="pAHUZP1YiXW2KPVq_koE-3" value="sp2py&lt;div&gt;.rewrite&lt;/div&gt;" style="shape=cylinder3;whiteSpace=wrap;html=1;boundedLbl=1;backgroundOutline=1;size=15;fillColor=#d5e8d4;strokeColor=#82b366;labelBackgroundColor=none;" vertex="1" parent="1">
          <mxGeometry x="560" y="90" width="60" height="80" as="geometry" />
        </mxCell>
        <mxCell id="pAHUZP1YiXW2KPVq_koE-8" value="generated.py" style="shape=cylinder3;whiteSpace=wrap;html=1;boundedLbl=1;backgroundOutline=1;size=15;fontFamily=Helvetica;fontSize=11;labelBackgroundColor=none;fillColor=#fff2cc;strokeColor=#d6b656;" vertex="1" parent="1">
          <mxGeometry x="1260" y="90" width="60" height="80" as="geometry" />
        </mxCell>
        <mxCell id="pAHUZP1YiXW2KPVq_koE-9" style="edgeStyle=orthogonalEdgeStyle;shape=connector;curved=1;rounded=0;orthogonalLoop=1;jettySize=auto;html=1;exitX=1;exitY=0.5;exitDx=0;exitDy=0;entryX=0;entryY=0.5;entryDx=0;entryDy=0;entryPerimeter=0;strokeColor=default;align=center;verticalAlign=middle;fontFamily=Helvetica;fontSize=11;fontColor=default;labelBackgroundColor=none;endArrow=classic;exitPerimeter=0;" edge="1" parent="1" source="pAHUZP1YiXW2KPVq_koE-39" target="pAHUZP1YiXW2KPVq_koE-8">
          <mxGeometry relative="1" as="geometry">
            <mxPoint x="1140" y="370" as="sourcePoint" />
          </mxGeometry>
        </mxCell>
        <mxCell id="pAHUZP1YiXW2KPVq_koE-14" value="defname&lt;div&gt;.grammar&lt;/div&gt;" style="shape=cylinder3;whiteSpace=wrap;html=1;boundedLbl=1;backgroundOutline=1;size=15;fillColor=#d5e8d4;strokeColor=#82b366;labelBackgroundColor=none;dashed=1;dashPattern=1 4;opacity=50;textOpacity=50;" vertex="1" parent="1">
          <mxGeometry x="770" y="90" width="60" height="80" as="geometry" />
        </mxCell>
        <mxCell id="pAHUZP1YiXW2KPVq_koE-15" value="&lt;div&gt;defname&lt;/div&gt;&lt;div&gt;.rewrite&lt;/div&gt;" style="shape=cylinder3;whiteSpace=wrap;html=1;boundedLbl=1;backgroundOutline=1;size=15;fillColor=#d5e8d4;strokeColor=#82b366;labelBackgroundColor=none;dashed=1;dashPattern=1 4;opacity=50;textOpacity=50;" vertex="1" parent="1">
          <mxGeometry x="830" y="90" width="60" height="80" as="geometry" />
        </mxCell>
        <mxCell id="pAHUZP1YiXW2KPVq_koE-18" value="python3&lt;div&gt;sp.py&lt;/div&gt;" style="shape=cylinder3;whiteSpace=wrap;html=1;boundedLbl=1;backgroundOutline=1;size=15;fontFamily=Helvetica;fontSize=11;labelBackgroundColor=none;fillColor=#fff2cc;strokeColor=#d6b656;" vertex="1" parent="1">
          <mxGeometry x="1100" y="570" width="60" height="80" as="geometry" />
        </mxCell>
        <mxCell id="pAHUZP1YiXW2KPVq_koE-19" value="test.txt" style="shape=cylinder3;whiteSpace=wrap;html=1;boundedLbl=1;backgroundOutline=1;size=15;fillColor=#d5e8d4;strokeColor=#82b366;labelBackgroundColor=none;" vertex="1" parent="1">
          <mxGeometry x="960" y="570" width="60" height="80" as="geometry" />
        </mxCell>
        <mxCell id="pAHUZP1YiXW2KPVq_koE-20" style="edgeStyle=orthogonalEdgeStyle;shape=connector;curved=1;rounded=0;orthogonalLoop=1;jettySize=auto;html=1;entryX=0;entryY=0.5;entryDx=0;entryDy=0;entryPerimeter=0;strokeColor=default;align=center;verticalAlign=middle;fontFamily=Helvetica;fontSize=11;fontColor=default;labelBackgroundColor=default;endArrow=classic;" edge="1" parent="1" source="pAHUZP1YiXW2KPVq_koE-19" target="pAHUZP1YiXW2KPVq_koE-18">
          <mxGeometry relative="1" as="geometry" />
        </mxCell>
        <mxCell id="pAHUZP1YiXW2KPVq_koE-21" value="parsed&lt;div&gt;output&lt;/div&gt;" style="shape=cylinder3;whiteSpace=wrap;html=1;boundedLbl=1;backgroundOutline=1;size=15;fontFamily=Helvetica;fontSize=11;labelBackgroundColor=none;fillColor=#f5f5f5;strokeColor=#666666;fontColor=#333333;" vertex="1" parent="1">
          <mxGeometry x="1240" y="570" width="60" height="80" as="geometry" />
        </mxCell>
        <mxCell id="pAHUZP1YiXW2KPVq_koE-22" style="edgeStyle=orthogonalEdgeStyle;shape=connector;curved=1;rounded=0;orthogonalLoop=1;jettySize=auto;html=1;exitX=1;exitY=0.5;exitDx=0;exitDy=0;exitPerimeter=0;entryX=0;entryY=0.5;entryDx=0;entryDy=0;entryPerimeter=0;strokeColor=default;align=center;verticalAlign=middle;fontFamily=Helvetica;fontSize=11;fontColor=default;labelBackgroundColor=default;endArrow=classic;" edge="1" parent="1" source="pAHUZP1YiXW2KPVq_koE-18" target="pAHUZP1YiXW2KPVq_koE-21">
          <mxGeometry relative="1" as="geometry" />
        </mxCell>
        <mxCell id="pAHUZP1YiXW2KPVq_koE-23" value="receptor.py" style="shape=cylinder3;whiteSpace=wrap;html=1;boundedLbl=1;backgroundOutline=1;size=15;fontFamily=Helvetica;fontSize=11;labelBackgroundColor=none;fillColor=#d5e8d4;strokeColor=#82b366;" vertex="1" parent="1">
          <mxGeometry x="1290" y="270" width="60" height="80" as="geometry" />
        </mxCell>
        <mxCell id="pAHUZP1YiXW2KPVq_koE-24" style="edgeStyle=orthogonalEdgeStyle;shape=connector;curved=1;rounded=0;orthogonalLoop=1;jettySize=auto;html=1;exitX=1;exitY=0.5;exitDx=0;exitDy=0;exitPerimeter=0;entryX=0;entryY=0;entryDx=0;entryDy=52.5;entryPerimeter=0;strokeColor=default;align=center;verticalAlign=middle;fontFamily=Helvetica;fontSize=11;fontColor=default;labelBackgroundColor=default;endArrow=classic;" edge="1" parent="1" source="pAHUZP1YiXW2KPVq_koE-23" target="pAHUZP1YiXW2KPVq_koE-45">
          <mxGeometry relative="1" as="geometry" />
        </mxCell>
        <mxCell id="pAHUZP1YiXW2KPVq_koE-25" value="+" style="edgeLabel;html=1;align=center;verticalAlign=middle;resizable=0;points=[];fontFamily=Helvetica;fontSize=11;fontColor=default;labelBackgroundColor=default;" vertex="1" connectable="0" parent="pAHUZP1YiXW2KPVq_koE-24">
          <mxGeometry x="0.1833" y="8" relative="1" as="geometry">
            <mxPoint as="offset" />
          </mxGeometry>
        </mxCell>
        <mxCell id="pAHUZP1YiXW2KPVq_koE-44" style="edgeStyle=orthogonalEdgeStyle;shape=connector;curved=1;rounded=0;orthogonalLoop=1;jettySize=auto;html=1;strokeColor=default;align=center;verticalAlign=middle;fontFamily=Helvetica;fontSize=11;fontColor=default;labelBackgroundColor=default;endArrow=classic;" edge="1" parent="1" source="pAHUZP1YiXW2KPVq_koE-26" target="pAHUZP1YiXW2KPVq_koE-34">
          <mxGeometry relative="1" as="geometry" />
        </mxCell>
        <mxCell id="pAHUZP1YiXW2KPVq_koE-26" value="das2json.sp" style="shape=cylinder3;whiteSpace=wrap;html=1;boundedLbl=1;backgroundOutline=1;size=15;fontFamily=Helvetica;fontSize=11;labelBackgroundColor=none;fillColor=#d5e8d4;strokeColor=#82b366;" vertex="1" parent="1">
          <mxGeometry x="70" y="90" width="60" height="80" as="geometry" />
        </mxCell>
        <mxCell id="pAHUZP1YiXW2KPVq_koE-28" value="XML parser&lt;div&gt;(sp = Stream Parser)&lt;/div&gt;" style="rounded=1;whiteSpace=wrap;html=1;fontFamily=Helvetica;fontSize=11;fontColor=default;labelBackgroundColor=default;sketch=1;curveFitting=1;jiggle=2;dashed=1;" vertex="1" parent="1">
          <mxGeometry x="40" y="190" width="120" height="40" as="geometry" />
        </mxCell>
        <mxCell id="pAHUZP1YiXW2KPVq_koE-36" style="edgeStyle=orthogonalEdgeStyle;shape=connector;curved=1;rounded=0;orthogonalLoop=1;jettySize=auto;html=1;exitX=1;exitY=0.5;exitDx=0;exitDy=0;strokeColor=default;align=center;verticalAlign=middle;fontFamily=Helvetica;fontSize=11;fontColor=default;labelBackgroundColor=default;endArrow=classic;" edge="1" parent="1" source="pAHUZP1YiXW2KPVq_koE-31" target="pAHUZP1YiXW2KPVq_koE-29">
          <mxGeometry relative="1" as="geometry" />
        </mxCell>
        <mxCell id="pAHUZP1YiXW2KPVq_koE-31" value="inhale" style="rounded=1;whiteSpace=wrap;html=1;fontFamily=Helvetica;fontSize=11;fontColor=default;labelBackgroundColor=default;" vertex="1" parent="1">
          <mxGeometry x="280" y="100" width="120" height="60" as="geometry" />
        </mxCell>
        <mxCell id="pAHUZP1YiXW2KPVq_koE-32" value="exhale" style="rounded=1;whiteSpace=wrap;html=1;fontFamily=Helvetica;fontSize=11;fontColor=default;labelBackgroundColor=default;" vertex="1" parent="1">
          <mxGeometry x="980" y="100" width="120" height="60" as="geometry" />
        </mxCell>
        <mxCell id="pAHUZP1YiXW2KPVq_koE-35" style="edgeStyle=orthogonalEdgeStyle;shape=connector;curved=1;rounded=0;orthogonalLoop=1;jettySize=auto;html=1;exitX=1;exitY=0.5;exitDx=0;exitDy=0;exitPerimeter=0;entryX=0;entryY=0.5;entryDx=0;entryDy=0;strokeColor=default;align=center;verticalAlign=middle;fontFamily=Helvetica;fontSize=11;fontColor=default;labelBackgroundColor=default;endArrow=classic;" edge="1" parent="1" source="pAHUZP1YiXW2KPVq_koE-34" target="pAHUZP1YiXW2KPVq_koE-31">
          <mxGeometry relative="1" as="geometry" />
        </mxCell>
        <mxCell id="pAHUZP1YiXW2KPVq_koE-34" value="" style="rhombus;whiteSpace=wrap;html=1;rounded=1;fontStyle=1;glass=0;sketch=0;fontSize=12;points=[[0,0.5,0,0,0],[0.5,0,0,0,0],[0.5,1,0,0,0],[1,0.5,0,0,0]];shadow=1;fontFamily=Helvetica;fontColor=default;" vertex="1" parent="1">
          <mxGeometry x="200" y="110" width="40" height="40" as="geometry" />
        </mxCell>
        <mxCell id="pAHUZP1YiXW2KPVq_koE-39" value="" style="rhombus;whiteSpace=wrap;html=1;rounded=1;fontStyle=1;glass=0;sketch=0;fontSize=12;points=[[0,0.5,0,0,0],[0.5,0,0,0,0],[0.5,1,0,0,0],[1,0.5,0,0,0]];shadow=1;fillColor=#0050ef;fontColor=#ffffff;strokeColor=#001DBC;fontFamily=Helvetica;" vertex="1" parent="1">
          <mxGeometry x="1140" y="110" width="40" height="40" as="geometry" />
        </mxCell>
        <mxCell id="pAHUZP1YiXW2KPVq_koE-41" style="edgeStyle=orthogonalEdgeStyle;shape=connector;curved=1;rounded=0;orthogonalLoop=1;jettySize=auto;html=1;exitX=1;exitY=0.5;exitDx=0;exitDy=0;entryX=0;entryY=0.5;entryDx=0;entryDy=0;entryPerimeter=0;strokeColor=default;align=center;verticalAlign=middle;fontFamily=Helvetica;fontSize=11;fontColor=default;labelBackgroundColor=default;endArrow=classic;" edge="1" parent="1" source="pAHUZP1YiXW2KPVq_koE-32" target="pAHUZP1YiXW2KPVq_koE-39">
          <mxGeometry relative="1" as="geometry" />
        </mxCell>
        <mxCell id="pAHUZP1YiXW2KPVq_koE-42" value="" style="rounded=1;whiteSpace=wrap;html=1;fontFamily=Helvetica;fontSize=11;fontColor=default;labelBackgroundColor=default;dashed=1;fillColor=none;" vertex="1" parent="1">
          <mxGeometry x="440" y="35" width="500" height="190" as="geometry" />
        </mxCell>
        <mxCell id="pAHUZP1YiXW2KPVq_koE-45" value="sp.py" style="shape=cylinder3;whiteSpace=wrap;html=1;boundedLbl=1;backgroundOutline=1;size=15;fontFamily=Helvetica;fontSize=11;labelBackgroundColor=none;fillColor=#fff2cc;strokeColor=#d6b656;" vertex="1" parent="1">
          <mxGeometry x="1400" y="90" width="60" height="80" as="geometry" />
        </mxCell>
        <mxCell id="pAHUZP1YiXW2KPVq_koE-46" style="edgeStyle=orthogonalEdgeStyle;shape=connector;curved=1;rounded=0;orthogonalLoop=1;jettySize=auto;html=1;exitX=1;exitY=0.5;exitDx=0;exitDy=0;exitPerimeter=0;entryX=0;entryY=0.5;entryDx=0;entryDy=0;entryPerimeter=0;strokeColor=default;align=center;verticalAlign=middle;fontFamily=Helvetica;fontSize=11;fontColor=default;labelBackgroundColor=default;endArrow=classic;" edge="1" parent="1" source="pAHUZP1YiXW2KPVq_koE-8" target="pAHUZP1YiXW2KPVq_koE-45">
          <mxGeometry relative="1" as="geometry" />
        </mxCell>
      </root>
    </mxGraphModel>
  </diagram>
</mxfile>
